<svg id="Layer_1" data-name="Layer 1" xmlns="http://www.w3.org/2000/svg" xmlns:xlink="http://www.w3.org/1999/xlink" viewBox="0 0 105.36 70.49"><defs><style>.cls-1{fill:url(#linear-gradient);}.cls-2{fill:none;stroke:#00a14b;stroke-miterlimit:10;stroke-width:5px;}</style><linearGradient id="linear-gradient" x1="184.4" y1="265.48" x2="241.5" y2="265.48" gradientUnits="userSpaceOnUse"><stop offset="0" stop-color="#3c53a4"/><stop offset="0.39" stop-color="#c2b65b"/><stop offset="1" stop-color="#ead917"/></linearGradient></defs><title>logoo</title><path class="cls-1" d="M184.4,249.06a62.31,62.31,0,0,1,9.25-.7c6.25,0,10.7,1.45,13.66,4.2s4.75,6.65,4.75,12.1-1.7,10-4.86,13.1-8.35,4.85-14.9,4.85a70.21,70.21,0,0,1-7.9-.4Zm4.35,29.8a27.47,27.47,0,0,0,4.4.25c9.3,0,14.36-5.2,14.36-14.3.05-7.95-4.46-13-13.66-13a24.72,24.72,0,0,0-5.1.45Zm28.95-30.25h4.35v16.25h.15c.9-1.3,1.8-2.5,2.65-3.6l10.3-12.65h5.4l-12.2,14.3,13.15,19.4h-5.15l-11.1-16.55-3.2,3.7v12.85H217.7Z" transform="translate(-159.52 -230.22)"/><rect class="cls-2" x="2.5" y="2.5" width="100.36" height="65.49"/></svg>